<svg width="14" height="15" viewBox="0 0 14 15" fill="none" xmlns="http://www.w3.org/2000/svg">
<path d="M4.13571 7.40064L9.01209 12.0469C9.09345 12.1245 9.20155 12.1677 9.31396 12.1677C9.42637 12.1677 9.53447 12.1245 9.61584 12.0469L9.62109 12.0416C9.66067 12.004 9.69219 11.9588 9.71372 11.9086C9.73526 11.8584 9.74637 11.8044 9.74637 11.7498C9.74637 11.6952 9.73526 11.6412 9.71372 11.591C9.69219 11.5409 9.66067 11.4956 9.62109 11.458L5.02909 7.08302L9.62109 2.70977C9.66067 2.67216 9.69219 2.6269 9.71372 2.57674C9.73526 2.52657 9.74637 2.47255 9.74637 2.41795C9.74637 2.36336 9.73526 2.30934 9.71372 2.25917C9.69219 2.209 9.66067 2.16374 9.62109 2.12614L9.61584 2.12089C9.53447 2.04333 9.42637 2.00006 9.31396 2.00006C9.20155 2.00006 9.09345 2.04333 9.01209 2.12089L4.13571 6.76714C4.09283 6.808 4.05869 6.85714 4.03536 6.91159C4.01203 6.96604 4 7.02466 4 7.08389C4 7.14313 4.01203 7.20174 4.03536 7.25619C4.05869 7.31064 4.09283 7.35978 4.13571 7.40064Z" fill="#FFFCFC"/>
</svg>
