<svg width="15" height="14" viewBox="0 0 15 14" fill="none" xmlns="http://www.w3.org/2000/svg">
<rect width="14.1677" height="13.7464" transform="translate(0.789307 0.210693)" fill="white"/>
<path d="M7.55639 4.34641L2.91014 9.22278C2.83258 9.30415 2.78931 9.41224 2.78931 9.52466C2.78931 9.63707 2.83258 9.74517 2.91014 9.82653L2.91539 9.83178C2.95299 9.87136 2.99825 9.90288 3.04842 9.92442C3.09859 9.94595 3.15261 9.95706 3.2072 9.95706C3.2618 9.95706 3.31582 9.94595 3.36599 9.92442C3.41615 9.90288 3.46141 9.87136 3.49902 9.83178L7.87402 5.23978L12.2473 9.83178C12.2849 9.87136 12.3301 9.90288 12.3803 9.92442C12.4305 9.94595 12.4845 9.95706 12.5391 9.95706C12.5937 9.95706 12.6477 9.94595 12.6979 9.92442C12.748 9.90288 12.7933 9.87136 12.8309 9.83178L12.8361 9.82653C12.9137 9.74517 12.957 9.63707 12.957 9.52466C12.957 9.41224 12.9137 9.30415 12.8361 9.22278L8.18989 4.34641C8.14903 4.30352 8.09989 4.26938 8.04544 4.24605C7.99099 4.22272 7.93237 4.21069 7.87314 4.21069C7.81391 4.21069 7.75529 4.22272 7.70084 4.24605C7.64639 4.26938 7.59725 4.30352 7.55639 4.34641Z" fill="black"/>
</svg>
