<svg width="14" height="16" viewBox="0 0 14 16" fill="none" xmlns="http://www.w3.org/2000/svg">
<path d="M9.86429 7.68325L4.98791 3.037C4.90655 2.95944 4.79845 2.91617 4.68604 2.91617C4.57363 2.91617 4.46553 2.95944 4.38416 3.037L4.37891 3.04225C4.33933 3.07985 4.30781 3.12511 4.28628 3.17528C4.26474 3.22545 4.25363 3.27947 4.25363 3.33406C4.25363 3.38866 4.26474 3.44268 4.28628 3.49285C4.30781 3.54301 4.33933 3.58828 4.37891 3.62588L8.97091 8.00088L4.37891 12.3741C4.33933 12.4117 4.30781 12.457 4.28628 12.5072C4.26474 12.5573 4.25363 12.6113 4.25363 12.6659C4.25363 12.7205 4.26474 12.7746 4.28628 12.8247C4.30781 12.8749 4.33933 12.9202 4.37891 12.9578L4.38416 12.963C4.46553 13.0406 4.57363 13.0838 4.68604 13.0838C4.79845 13.0838 4.90655 13.0406 4.98791 12.963L9.86429 8.31675C9.90717 8.27589 9.94131 8.22675 9.96464 8.1723C9.98797 8.11785 10 8.05924 10 8C10 7.94077 9.98797 7.88215 9.96464 7.8277C9.94131 7.77325 9.90717 7.72411 9.86429 7.68325Z" fill="#FFFCFC"/>
</svg>
