<svg width="16" height="16" viewBox="0 0 16 16" fill="none" xmlns="http://www.w3.org/2000/svg">
<path d="M3.33341 12.6666H4.06541L11.1974 5.53464L10.4654 4.80264L3.33341 11.9346V12.6666ZM2.66675 13.3333V11.6533L11.4534 2.85864C11.5223 2.79775 11.5979 2.75064 11.6801 2.7173C11.7623 2.68397 11.8483 2.66708 11.9381 2.66664C12.0279 2.66619 12.1145 2.68041 12.1981 2.7093C12.2825 2.7373 12.3603 2.78797 12.4314 2.8613L13.1427 3.5773C13.2161 3.64797 13.2663 3.72575 13.2934 3.81064C13.3201 3.89508 13.3334 3.97953 13.3334 4.06397C13.3334 4.15464 13.3183 4.2413 13.2881 4.32397C13.2574 4.40619 13.209 4.48152 13.1427 4.54997L4.34608 13.3333H2.66675ZM10.8254 5.17464L10.4654 4.80264L11.1974 5.53464L10.8254 5.17464Z" fill="white"/>
</svg>
