<svg width="22" height="23" viewBox="0 0 22 23" fill="none" xmlns="http://www.w3.org/2000/svg">
<path d="M20.864 19.74H19.676V13.296C19.676 12.972 19.388 12.684 19.064 12.684H12.332C12.008 12.684 11.72 12.972 11.72 13.296V19.704H9.92003V13.296C9.92003 12.972 9.63203 12.684 9.30803 12.684H2.57603C2.25203 12.684 1.96403 12.972 1.96403 13.296V19.704H0.776031C0.380031 19.704 0.0560303 20.028 0.0560303 20.424V21.864C0.0560303 22.26 0.380031 22.584 0.776031 22.584H20.828C21.224 22.584 21.548 22.26 21.548 21.864V20.424C21.584 20.028 21.26 19.74 20.864 19.74ZM13.34 14.34H18.02V15.96H13.34V14.34ZM3.58403 14.34H8.26403V15.96H3.58403V14.34ZM20.864 8.04001H19.676V1.59601C19.676 1.27201 19.388 0.984009 19.064 0.984009H12.332C12.008 0.984009 11.72 1.27201 11.72 1.59601V8.04001H9.92003V1.59601C9.92003 1.27201 9.63203 0.984009 9.30803 0.984009H2.57603C2.25203 0.984009 1.96403 1.27201 1.96403 1.59601V8.04001H0.776031C0.380031 8.04001 0.0560303 8.40001 0.0560303 8.76001V10.2C0.0560303 10.596 0.380031 10.92 0.776031 10.92H20.828C21.224 10.92 21.548 10.596 21.548 10.2V8.76001C21.584 8.32801 21.26 8.04001 20.864 8.04001ZM13.34 2.64001H18.02V4.26001H13.34V2.64001ZM3.58403 2.64001H8.26403V4.26001H3.58403V2.64001Z" fill="black"/>
</svg>
