<svg width="17" height="17" viewBox="0 0 17 17" fill="none" xmlns="http://www.w3.org/2000/svg">
<path d="M3.25 8.91501C3.25 8.7824 3.30394 8.65522 3.39996 8.56146C3.49598 8.46769 3.62621 8.41501 3.762 8.41501H12.978C13.1138 8.41501 13.244 8.46769 13.34 8.56146C13.4361 8.65522 13.49 8.7824 13.49 8.91501C13.49 9.04762 13.4361 9.17479 13.34 9.26856C13.244 9.36233 13.1138 9.41501 12.978 9.41501H3.762C3.62621 9.41501 3.49598 9.36233 3.39996 9.26856C3.30394 9.17479 3.25 9.04762 3.25 8.91501Z" fill="white"/>
<path d="M8.25 3.91501C8.38261 3.91501 8.50979 3.96895 8.60355 4.06497C8.69732 4.16099 8.75 4.29122 8.75 4.42701V13.643C8.75 13.7788 8.69732 13.909 8.60355 14.005C8.50979 14.1011 8.38261 14.155 8.25 14.155C8.11739 14.155 7.99021 14.1011 7.89645 14.005C7.80268 13.909 7.75 13.7788 7.75 13.643L7.75 4.42701C7.75 4.29122 7.80268 4.16099 7.89645 4.06497C7.99021 3.96895 8.11739 3.91501 8.25 3.91501Z" fill="white"/>
</svg>
