<svg width="20" height="20" viewBox="0 0 20 20" fill="none" xmlns="http://www.w3.org/2000/svg">
<path d="M3.33333 15.3209V4.67921C3.33333 4.30921 3.46527 3.99254 3.72916 3.72921C3.99305 3.46587 4.30972 3.33393 4.67916 3.33337H15.3208C15.6908 3.33337 16.0075 3.46532 16.2708 3.72921C16.5342 3.9931 16.6661 4.30976 16.6667 4.67921V15.3209C16.6667 15.6909 16.5347 16.0075 16.2708 16.2709C16.0069 16.5342 15.6903 16.6662 15.3208 16.6667H4.67916C4.30916 16.6667 3.99249 16.5348 3.72916 16.2709C3.46583 16.007 3.33388 15.6898 3.33333 15.3209ZM4.16666 7.62921H15.8333V4.68004C15.8333 4.53004 15.7853 4.40698 15.6892 4.31087C15.593 4.21476 15.4703 4.16671 15.3208 4.16671H4.67916C4.52972 4.16671 4.40694 4.21476 4.31083 4.31087C4.21472 4.40698 4.16666 4.53004 4.16666 4.68004V7.62921ZM8.33166 11.7317H11.6683V8.46254H8.33166V11.7317ZM8.33166 15.8342H11.6683V12.565H8.33166V15.8342ZM4.16666 11.7309H7.49833V8.46171H4.16666V11.7309ZM12.5017 11.7309H15.8333V8.46171H12.5017V11.7309ZM4.68 15.8334H7.49833V12.5642H4.16666V15.3209C4.16666 15.4703 4.21472 15.5931 4.31083 15.6892C4.40694 15.7853 4.53 15.8334 4.68 15.8334ZM12.5017 15.8334H15.32C15.47 15.8334 15.593 15.7853 15.6892 15.6892C15.7853 15.5931 15.8333 15.4703 15.8333 15.3209V12.5642H12.5017V15.8334Z" fill="white"/>
</svg>
